<mxfile host="app.diagrams.net" agent="Mozilla/5.0 (Windows NT 10.0; Win64; x64) AppleWebKit/537.36 (KHTML, like Gecko) Chrome/130.0.0.0 Safari/537.36" version="24.8.2">
  <diagram name="Page-1" id="axxQtsrX6LSHOZOjlCmS">
    <mxGraphModel dx="1730" dy="1560" grid="1" gridSize="10" guides="1" tooltips="1" connect="1" arrows="1" fold="1" page="1" pageScale="1" pageWidth="850" pageHeight="1100" math="0" shadow="0">
      <root>
        <mxCell id="0" />
        <mxCell id="1" parent="0" />
        <mxCell id="_XZ0U39rJyCLqSqVKmFr-1" style="edgeStyle=none;curved=1;rounded=0;orthogonalLoop=1;jettySize=auto;html=1;entryX=0;entryY=0;entryDx=0;entryDy=0;fontSize=12;startSize=8;endSize=8;" edge="1" parent="1" source="_XZ0U39rJyCLqSqVKmFr-13" target="_XZ0U39rJyCLqSqVKmFr-136">
          <mxGeometry relative="1" as="geometry">
            <Array as="points">
              <mxPoint x="550" y="-50" />
            </Array>
          </mxGeometry>
        </mxCell>
        <mxCell id="_XZ0U39rJyCLqSqVKmFr-2" value="has" style="edgeLabel;html=1;align=center;verticalAlign=middle;resizable=0;points=[];fontSize=12;" vertex="1" connectable="0" parent="_XZ0U39rJyCLqSqVKmFr-1">
          <mxGeometry x="-0.6292" y="-5" relative="1" as="geometry">
            <mxPoint x="96" y="-57" as="offset" />
          </mxGeometry>
        </mxCell>
        <mxCell id="_XZ0U39rJyCLqSqVKmFr-3" value="1" style="edgeLabel;html=1;align=center;verticalAlign=middle;resizable=0;points=[];fontSize=12;" vertex="1" connectable="0" parent="_XZ0U39rJyCLqSqVKmFr-1">
          <mxGeometry x="-0.8941" y="-5" relative="1" as="geometry">
            <mxPoint x="-22" as="offset" />
          </mxGeometry>
        </mxCell>
        <mxCell id="_XZ0U39rJyCLqSqVKmFr-4" value="n" style="edgeLabel;html=1;align=center;verticalAlign=middle;resizable=0;points=[];fontSize=12;" vertex="1" connectable="0" parent="_XZ0U39rJyCLqSqVKmFr-1">
          <mxGeometry x="0.906" relative="1" as="geometry">
            <mxPoint x="2" y="-11" as="offset" />
          </mxGeometry>
        </mxCell>
        <mxCell id="_XZ0U39rJyCLqSqVKmFr-5" style="edgeStyle=none;curved=1;rounded=0;orthogonalLoop=1;jettySize=auto;html=1;fontSize=12;startSize=8;endSize=8;" edge="1" parent="1" source="_XZ0U39rJyCLqSqVKmFr-13">
          <mxGeometry relative="1" as="geometry">
            <mxPoint x="300" y="-130" as="targetPoint" />
          </mxGeometry>
        </mxCell>
        <mxCell id="_XZ0U39rJyCLqSqVKmFr-6" value="n" style="edgeLabel;html=1;align=center;verticalAlign=middle;resizable=0;points=[];fontSize=12;" vertex="1" connectable="0" parent="_XZ0U39rJyCLqSqVKmFr-5">
          <mxGeometry x="-0.5714" y="-2" relative="1" as="geometry">
            <mxPoint x="8" y="-137" as="offset" />
          </mxGeometry>
        </mxCell>
        <mxCell id="_XZ0U39rJyCLqSqVKmFr-7" value="1" style="edgeLabel;html=1;align=center;verticalAlign=middle;resizable=0;points=[];fontSize=12;" vertex="1" connectable="0" parent="_XZ0U39rJyCLqSqVKmFr-5">
          <mxGeometry x="-0.5714" y="-2" relative="1" as="geometry">
            <mxPoint x="8" y="31" as="offset" />
          </mxGeometry>
        </mxCell>
        <mxCell id="_XZ0U39rJyCLqSqVKmFr-8" value="1" style="edgeLabel;html=1;align=center;verticalAlign=middle;resizable=0;points=[];fontSize=12;" vertex="1" connectable="0" parent="_XZ0U39rJyCLqSqVKmFr-5">
          <mxGeometry x="-0.5714" y="-2" relative="1" as="geometry">
            <mxPoint x="218" y="31" as="offset" />
          </mxGeometry>
        </mxCell>
        <mxCell id="_XZ0U39rJyCLqSqVKmFr-9" value="1" style="edgeLabel;html=1;align=center;verticalAlign=middle;resizable=0;points=[];fontSize=12;" vertex="1" connectable="0" parent="_XZ0U39rJyCLqSqVKmFr-5">
          <mxGeometry x="-0.5714" y="-2" relative="1" as="geometry">
            <mxPoint x="112" y="-139" as="offset" />
          </mxGeometry>
        </mxCell>
        <mxCell id="_XZ0U39rJyCLqSqVKmFr-10" style="edgeStyle=none;curved=1;rounded=0;orthogonalLoop=1;jettySize=auto;html=1;entryX=1;entryY=0.5;entryDx=0;entryDy=0;fontSize=12;startSize=8;endSize=8;" edge="1" parent="1" source="_XZ0U39rJyCLqSqVKmFr-13" target="_XZ0U39rJyCLqSqVKmFr-145">
          <mxGeometry relative="1" as="geometry">
            <Array as="points">
              <mxPoint x="250" y="270" />
            </Array>
          </mxGeometry>
        </mxCell>
        <mxCell id="_XZ0U39rJyCLqSqVKmFr-11" value="1,n" style="edgeLabel;html=1;align=center;verticalAlign=middle;resizable=0;points=[];fontSize=12;" vertex="1" connectable="0" parent="_XZ0U39rJyCLqSqVKmFr-10">
          <mxGeometry x="-0.8205" y="2" relative="1" as="geometry">
            <mxPoint x="9" as="offset" />
          </mxGeometry>
        </mxCell>
        <mxCell id="_XZ0U39rJyCLqSqVKmFr-12" value="1,n" style="edgeLabel;html=1;align=center;verticalAlign=middle;resizable=0;points=[];fontSize=12;" vertex="1" connectable="0" parent="_XZ0U39rJyCLqSqVKmFr-10">
          <mxGeometry x="-0.8205" y="2" relative="1" as="geometry">
            <mxPoint x="-101" y="122" as="offset" />
          </mxGeometry>
        </mxCell>
        <mxCell id="_XZ0U39rJyCLqSqVKmFr-13" value="University  " style="swimlane;fontStyle=2;align=center;verticalAlign=top;childLayout=stackLayout;horizontal=1;startSize=26;horizontalStack=0;resizeParent=1;resizeLast=0;collapsible=1;marginBottom=0;rounded=0;shadow=0;strokeWidth=1;" vertex="1" parent="1">
          <mxGeometry x="220" y="60" width="160" height="100" as="geometry">
            <mxRectangle x="230" y="140" width="160" height="26" as="alternateBounds" />
          </mxGeometry>
        </mxCell>
        <mxCell id="_XZ0U39rJyCLqSqVKmFr-14" value="[Attributes]" style="text;align=left;verticalAlign=top;spacingLeft=4;spacingRight=4;overflow=hidden;rotatable=0;points=[[0,0.5],[1,0.5]];portConstraint=eastwest;" vertex="1" parent="_XZ0U39rJyCLqSqVKmFr-13">
          <mxGeometry y="26" width="160" height="26" as="geometry" />
        </mxCell>
        <mxCell id="_XZ0U39rJyCLqSqVKmFr-15" value="" style="line;html=1;strokeWidth=1;align=left;verticalAlign=middle;spacingTop=-1;spacingLeft=3;spacingRight=3;rotatable=0;labelPosition=right;points=[];portConstraint=eastwest;" vertex="1" parent="_XZ0U39rJyCLqSqVKmFr-13">
          <mxGeometry y="52" width="160" height="8" as="geometry" />
        </mxCell>
        <mxCell id="_XZ0U39rJyCLqSqVKmFr-16" style="edgeStyle=none;curved=1;rounded=0;orthogonalLoop=1;jettySize=auto;html=1;entryX=0;entryY=0.5;entryDx=0;entryDy=0;fontSize=12;startSize=8;endSize=8;" edge="1" parent="1" source="_XZ0U39rJyCLqSqVKmFr-19" target="_XZ0U39rJyCLqSqVKmFr-60">
          <mxGeometry relative="1" as="geometry">
            <Array as="points">
              <mxPoint x="330" y="280" />
            </Array>
          </mxGeometry>
        </mxCell>
        <mxCell id="_XZ0U39rJyCLqSqVKmFr-17" style="edgeStyle=none;curved=1;rounded=0;orthogonalLoop=1;jettySize=auto;html=1;entryX=0;entryY=0;entryDx=0;entryDy=0;fontSize=12;startSize=8;endSize=8;" edge="1" parent="1" source="_XZ0U39rJyCLqSqVKmFr-19" target="_XZ0U39rJyCLqSqVKmFr-75">
          <mxGeometry relative="1" as="geometry">
            <Array as="points">
              <mxPoint x="360" y="610" />
            </Array>
          </mxGeometry>
        </mxCell>
        <mxCell id="_XZ0U39rJyCLqSqVKmFr-18" style="edgeStyle=none;curved=1;rounded=0;orthogonalLoop=1;jettySize=auto;html=1;entryX=0.5;entryY=1;entryDx=0;entryDy=0;fontSize=12;startSize=8;endSize=8;" edge="1" parent="1" source="_XZ0U39rJyCLqSqVKmFr-19" target="_XZ0U39rJyCLqSqVKmFr-112">
          <mxGeometry relative="1" as="geometry">
            <Array as="points">
              <mxPoint x="330" y="1010" />
              <mxPoint x="720" y="1100" />
            </Array>
          </mxGeometry>
        </mxCell>
        <mxCell id="_XZ0U39rJyCLqSqVKmFr-19" value="Graduate Student" style="swimlane;fontStyle=0;align=center;verticalAlign=top;childLayout=stackLayout;horizontal=1;startSize=26;horizontalStack=0;resizeParent=1;resizeLast=0;collapsible=1;marginBottom=0;rounded=0;shadow=0;strokeWidth=1;" vertex="1" parent="1">
          <mxGeometry x="260" y="450" width="160" height="100" as="geometry">
            <mxRectangle x="130" y="380" width="160" height="26" as="alternateBounds" />
          </mxGeometry>
        </mxCell>
        <mxCell id="_XZ0U39rJyCLqSqVKmFr-20" value="[Attributes]" style="text;align=left;verticalAlign=top;spacingLeft=4;spacingRight=4;overflow=hidden;rotatable=0;points=[[0,0.5],[1,0.5]];portConstraint=eastwest;" vertex="1" parent="_XZ0U39rJyCLqSqVKmFr-19">
          <mxGeometry y="26" width="160" height="26" as="geometry" />
        </mxCell>
        <mxCell id="_XZ0U39rJyCLqSqVKmFr-21" value="" style="line;html=1;strokeWidth=1;align=left;verticalAlign=middle;spacingTop=-1;spacingLeft=3;spacingRight=3;rotatable=0;labelPosition=right;points=[];portConstraint=eastwest;" vertex="1" parent="_XZ0U39rJyCLqSqVKmFr-19">
          <mxGeometry y="52" width="160" height="8" as="geometry" />
        </mxCell>
        <mxCell id="_XZ0U39rJyCLqSqVKmFr-22" style="edgeStyle=none;curved=1;rounded=0;orthogonalLoop=1;jettySize=auto;html=1;entryX=1;entryY=0;entryDx=0;entryDy=0;fontSize=12;startSize=8;endSize=8;" edge="1" parent="1" source="_XZ0U39rJyCLqSqVKmFr-24" target="_XZ0U39rJyCLqSqVKmFr-75">
          <mxGeometry relative="1" as="geometry">
            <Array as="points">
              <mxPoint x="600" y="600" />
            </Array>
          </mxGeometry>
        </mxCell>
        <mxCell id="_XZ0U39rJyCLqSqVKmFr-23" style="edgeStyle=none;curved=1;rounded=0;orthogonalLoop=1;jettySize=auto;html=1;entryX=0.25;entryY=1;entryDx=0;entryDy=0;fontSize=12;startSize=8;endSize=8;" edge="1" parent="1" source="_XZ0U39rJyCLqSqVKmFr-24" target="_XZ0U39rJyCLqSqVKmFr-124">
          <mxGeometry relative="1" as="geometry">
            <Array as="points">
              <mxPoint x="750" y="690" />
              <mxPoint x="1080" y="690" />
            </Array>
          </mxGeometry>
        </mxCell>
        <mxCell id="_XZ0U39rJyCLqSqVKmFr-24" value="Professor" style="swimlane;fontStyle=0;align=center;verticalAlign=top;childLayout=stackLayout;horizontal=1;startSize=26;horizontalStack=0;resizeParent=1;resizeLast=0;collapsible=1;marginBottom=0;rounded=0;shadow=0;strokeWidth=1;" vertex="1" parent="1">
          <mxGeometry x="520" y="450" width="160" height="100" as="geometry">
            <mxRectangle x="340" y="380" width="170" height="26" as="alternateBounds" />
          </mxGeometry>
        </mxCell>
        <mxCell id="_XZ0U39rJyCLqSqVKmFr-25" value="[Attributes]" style="text;align=left;verticalAlign=top;spacingLeft=4;spacingRight=4;overflow=hidden;rotatable=0;points=[[0,0.5],[1,0.5]];portConstraint=eastwest;" vertex="1" parent="_XZ0U39rJyCLqSqVKmFr-24">
          <mxGeometry y="26" width="160" height="26" as="geometry" />
        </mxCell>
        <mxCell id="_XZ0U39rJyCLqSqVKmFr-26" value="" style="line;html=1;strokeWidth=1;align=left;verticalAlign=middle;spacingTop=-1;spacingLeft=3;spacingRight=3;rotatable=0;labelPosition=right;points=[];portConstraint=eastwest;" vertex="1" parent="_XZ0U39rJyCLqSqVKmFr-24">
          <mxGeometry y="52" width="160" height="8" as="geometry" />
        </mxCell>
        <mxCell id="_XZ0U39rJyCLqSqVKmFr-27" style="edgeStyle=none;curved=1;rounded=0;orthogonalLoop=1;jettySize=auto;html=1;entryX=0.5;entryY=0;entryDx=0;entryDy=0;fontSize=12;startSize=8;endSize=8;" edge="1" parent="1" source="_XZ0U39rJyCLqSqVKmFr-30" target="_XZ0U39rJyCLqSqVKmFr-60">
          <mxGeometry relative="1" as="geometry" />
        </mxCell>
        <mxCell id="_XZ0U39rJyCLqSqVKmFr-28" style="edgeStyle=none;curved=1;rounded=0;orthogonalLoop=1;jettySize=auto;html=1;entryX=0;entryY=0;entryDx=0;entryDy=0;fontSize=12;startSize=8;endSize=8;" edge="1" parent="1" source="_XZ0U39rJyCLqSqVKmFr-30" target="_XZ0U39rJyCLqSqVKmFr-101">
          <mxGeometry relative="1" as="geometry">
            <Array as="points">
              <mxPoint x="760" y="190" />
            </Array>
          </mxGeometry>
        </mxCell>
        <mxCell id="_XZ0U39rJyCLqSqVKmFr-29" style="edgeStyle=none;curved=1;rounded=0;orthogonalLoop=1;jettySize=auto;html=1;entryX=1;entryY=1;entryDx=0;entryDy=0;fontSize=12;startSize=8;endSize=8;" edge="1" parent="1" source="_XZ0U39rJyCLqSqVKmFr-30" target="_XZ0U39rJyCLqSqVKmFr-141">
          <mxGeometry relative="1" as="geometry">
            <Array as="points">
              <mxPoint x="430" />
            </Array>
          </mxGeometry>
        </mxCell>
        <mxCell id="_XZ0U39rJyCLqSqVKmFr-30" value="Department" style="swimlane;fontStyle=0;align=center;verticalAlign=top;childLayout=stackLayout;horizontal=1;startSize=26;horizontalStack=0;resizeParent=1;resizeLast=0;collapsible=1;marginBottom=0;rounded=0;shadow=0;strokeWidth=1;" vertex="1" parent="1">
          <mxGeometry x="508" y="60" width="160" height="100" as="geometry">
            <mxRectangle x="550" y="140" width="160" height="26" as="alternateBounds" />
          </mxGeometry>
        </mxCell>
        <mxCell id="_XZ0U39rJyCLqSqVKmFr-31" value="[Attributes]" style="text;align=left;verticalAlign=top;spacingLeft=4;spacingRight=4;overflow=hidden;rotatable=0;points=[[0,0.5],[1,0.5]];portConstraint=eastwest;" vertex="1" parent="_XZ0U39rJyCLqSqVKmFr-30">
          <mxGeometry y="26" width="160" height="26" as="geometry" />
        </mxCell>
        <mxCell id="_XZ0U39rJyCLqSqVKmFr-32" value="" style="line;html=1;strokeWidth=1;align=left;verticalAlign=middle;spacingTop=-1;spacingLeft=3;spacingRight=3;rotatable=0;labelPosition=right;points=[];portConstraint=eastwest;" vertex="1" parent="_XZ0U39rJyCLqSqVKmFr-30">
          <mxGeometry y="52" width="160" height="8" as="geometry" />
        </mxCell>
        <mxCell id="_XZ0U39rJyCLqSqVKmFr-33" value="" style="endArrow=open;shadow=0;strokeWidth=1;rounded=0;curved=0;endFill=1;edgeStyle=elbowEdgeStyle;elbow=vertical;" edge="1" parent="1" source="_XZ0U39rJyCLqSqVKmFr-13" target="_XZ0U39rJyCLqSqVKmFr-30">
          <mxGeometry x="0.5" y="41" relative="1" as="geometry">
            <mxPoint x="380" y="192" as="sourcePoint" />
            <mxPoint x="540" y="192" as="targetPoint" />
            <mxPoint x="-40" y="32" as="offset" />
          </mxGeometry>
        </mxCell>
        <mxCell id="_XZ0U39rJyCLqSqVKmFr-34" value="1" style="resizable=0;align=left;verticalAlign=bottom;labelBackgroundColor=none;fontSize=12;" connectable="0" vertex="1" parent="_XZ0U39rJyCLqSqVKmFr-33">
          <mxGeometry x="-1" relative="1" as="geometry">
            <mxPoint y="1" as="offset" />
          </mxGeometry>
        </mxCell>
        <mxCell id="_XZ0U39rJyCLqSqVKmFr-35" value="n" style="resizable=0;align=right;verticalAlign=bottom;labelBackgroundColor=none;fontSize=12;" connectable="0" vertex="1" parent="_XZ0U39rJyCLqSqVKmFr-33">
          <mxGeometry x="1" relative="1" as="geometry">
            <mxPoint x="-10" y="1" as="offset" />
          </mxGeometry>
        </mxCell>
        <mxCell id="_XZ0U39rJyCLqSqVKmFr-36" value="Contains" style="text;html=1;resizable=0;points=[];;align=center;verticalAlign=middle;labelBackgroundColor=none;rounded=0;shadow=0;strokeWidth=1;fontSize=12;" vertex="1" connectable="0" parent="_XZ0U39rJyCLqSqVKmFr-33">
          <mxGeometry x="0.5" y="49" relative="1" as="geometry">
            <mxPoint x="-38" y="40" as="offset" />
          </mxGeometry>
        </mxCell>
        <mxCell id="_XZ0U39rJyCLqSqVKmFr-37" value="n,1" style="resizable=0;align=right;verticalAlign=bottom;labelBackgroundColor=none;fontSize=12;" connectable="0" vertex="1" parent="_XZ0U39rJyCLqSqVKmFr-33">
          <mxGeometry x="1" relative="1" as="geometry">
            <mxPoint x="77" y="258" as="offset" />
          </mxGeometry>
        </mxCell>
        <mxCell id="_XZ0U39rJyCLqSqVKmFr-38" value="n,1" style="resizable=0;align=right;verticalAlign=bottom;labelBackgroundColor=none;fontSize=12;" connectable="0" vertex="1" parent="_XZ0U39rJyCLqSqVKmFr-33">
          <mxGeometry x="1" relative="1" as="geometry">
            <mxPoint x="78" y="331" as="offset" />
          </mxGeometry>
        </mxCell>
        <mxCell id="_XZ0U39rJyCLqSqVKmFr-39" value="1" style="resizable=0;align=left;verticalAlign=bottom;labelBackgroundColor=none;fontSize=12;" connectable="0" vertex="1" parent="_XZ0U39rJyCLqSqVKmFr-33">
          <mxGeometry x="-1" relative="1" as="geometry">
            <mxPoint x="196" y="69" as="offset" />
          </mxGeometry>
        </mxCell>
        <mxCell id="_XZ0U39rJyCLqSqVKmFr-40" value="n" style="resizable=0;align=right;verticalAlign=bottom;labelBackgroundColor=none;fontSize=12;" connectable="0" vertex="1" parent="_XZ0U39rJyCLqSqVKmFr-33">
          <mxGeometry x="1" relative="1" as="geometry">
            <mxPoint x="77" y="123" as="offset" />
          </mxGeometry>
        </mxCell>
        <mxCell id="_XZ0U39rJyCLqSqVKmFr-41" value="1" style="resizable=0;align=right;verticalAlign=bottom;labelBackgroundColor=none;fontSize=12;" connectable="0" vertex="1" parent="_XZ0U39rJyCLqSqVKmFr-33">
          <mxGeometry x="1" relative="1" as="geometry">
            <mxPoint x="92" y="460" as="offset" />
          </mxGeometry>
        </mxCell>
        <mxCell id="_XZ0U39rJyCLqSqVKmFr-42" value="n,1" style="resizable=0;align=right;verticalAlign=bottom;labelBackgroundColor=none;fontSize=12;" connectable="0" vertex="1" parent="_XZ0U39rJyCLqSqVKmFr-33">
          <mxGeometry x="1" relative="1" as="geometry">
            <mxPoint x="64" y="525" as="offset" />
          </mxGeometry>
        </mxCell>
        <mxCell id="_XZ0U39rJyCLqSqVKmFr-43" value="n,1" style="resizable=0;align=right;verticalAlign=bottom;labelBackgroundColor=none;fontSize=12;" connectable="0" vertex="1" parent="_XZ0U39rJyCLqSqVKmFr-33">
          <mxGeometry x="1" relative="1" as="geometry">
            <mxPoint x="-136" y="460" as="offset" />
          </mxGeometry>
        </mxCell>
        <mxCell id="_XZ0U39rJyCLqSqVKmFr-44" value="n,1" style="resizable=0;align=right;verticalAlign=bottom;labelBackgroundColor=none;fontSize=12;" connectable="0" vertex="1" parent="_XZ0U39rJyCLqSqVKmFr-33">
          <mxGeometry x="1" relative="1" as="geometry">
            <mxPoint x="-83" y="520" as="offset" />
          </mxGeometry>
        </mxCell>
        <mxCell id="_XZ0U39rJyCLqSqVKmFr-45" value="n,1" style="resizable=0;align=right;verticalAlign=bottom;labelBackgroundColor=none;fontSize=12;" connectable="0" vertex="1" parent="_XZ0U39rJyCLqSqVKmFr-33">
          <mxGeometry x="1" relative="1" as="geometry">
            <mxPoint x="-253" y="418" as="offset" />
          </mxGeometry>
        </mxCell>
        <mxCell id="_XZ0U39rJyCLqSqVKmFr-46" value="" style="resizable=0;align=right;verticalAlign=bottom;labelBackgroundColor=none;fontSize=12;" connectable="0" vertex="1" parent="_XZ0U39rJyCLqSqVKmFr-33">
          <mxGeometry x="1" relative="1" as="geometry">
            <mxPoint x="-315" y="525" as="offset" />
          </mxGeometry>
        </mxCell>
        <mxCell id="_XZ0U39rJyCLqSqVKmFr-47" value="n,0,1" style="resizable=0;align=right;verticalAlign=bottom;labelBackgroundColor=none;fontSize=12;" connectable="0" vertex="1" parent="_XZ0U39rJyCLqSqVKmFr-33">
          <mxGeometry x="1" relative="1" as="geometry">
            <mxPoint x="-243" y="530" as="offset" />
          </mxGeometry>
        </mxCell>
        <mxCell id="_XZ0U39rJyCLqSqVKmFr-48" value="n,1 " style="resizable=0;align=right;verticalAlign=bottom;labelBackgroundColor=none;fontSize=12;" connectable="0" vertex="1" parent="_XZ0U39rJyCLqSqVKmFr-33">
          <mxGeometry x="1" relative="1" as="geometry">
            <mxPoint x="197" y="456" as="offset" />
          </mxGeometry>
        </mxCell>
        <mxCell id="_XZ0U39rJyCLqSqVKmFr-49" value="n,1" style="resizable=0;align=right;verticalAlign=bottom;labelBackgroundColor=none;fontSize=12;" connectable="0" vertex="1" parent="_XZ0U39rJyCLqSqVKmFr-33">
          <mxGeometry x="1" relative="1" as="geometry">
            <mxPoint x="95" y="695" as="offset" />
          </mxGeometry>
        </mxCell>
        <mxCell id="_XZ0U39rJyCLqSqVKmFr-50" value="n,1" style="resizable=0;align=right;verticalAlign=bottom;labelBackgroundColor=none;fontSize=12;" connectable="0" vertex="1" parent="_XZ0U39rJyCLqSqVKmFr-33">
          <mxGeometry x="1" relative="1" as="geometry">
            <mxPoint x="-288" y="390" as="offset" />
          </mxGeometry>
        </mxCell>
        <mxCell id="_XZ0U39rJyCLqSqVKmFr-51" value="n,1" style="resizable=0;align=right;verticalAlign=bottom;labelBackgroundColor=none;fontSize=12;" connectable="0" vertex="1" parent="_XZ0U39rJyCLqSqVKmFr-33">
          <mxGeometry x="1" relative="1" as="geometry">
            <mxPoint x="-52" y="690" as="offset" />
          </mxGeometry>
        </mxCell>
        <mxCell id="_XZ0U39rJyCLqSqVKmFr-52" value="n,1" style="resizable=0;align=right;verticalAlign=bottom;labelBackgroundColor=none;fontSize=12;" connectable="0" vertex="1" parent="_XZ0U39rJyCLqSqVKmFr-33">
          <mxGeometry x="1" relative="1" as="geometry">
            <mxPoint x="-171" y="459" as="offset" />
          </mxGeometry>
        </mxCell>
        <mxCell id="_XZ0U39rJyCLqSqVKmFr-53" value="1" style="resizable=0;align=right;verticalAlign=bottom;labelBackgroundColor=none;fontSize=12;" connectable="0" vertex="1" parent="_XZ0U39rJyCLqSqVKmFr-33">
          <mxGeometry x="1" relative="1" as="geometry">
            <mxPoint x="383" y="749" as="offset" />
          </mxGeometry>
        </mxCell>
        <mxCell id="_XZ0U39rJyCLqSqVKmFr-54" value="1" style="resizable=0;align=right;verticalAlign=bottom;labelBackgroundColor=none;fontSize=12;" connectable="0" vertex="1" parent="_XZ0U39rJyCLqSqVKmFr-33">
          <mxGeometry x="1" relative="1" as="geometry">
            <mxPoint x="134" y="456" as="offset" />
          </mxGeometry>
        </mxCell>
        <mxCell id="_XZ0U39rJyCLqSqVKmFr-55" value="1,n" style="resizable=0;align=right;verticalAlign=bottom;labelBackgroundColor=none;fontSize=12;" connectable="0" vertex="1" parent="_XZ0U39rJyCLqSqVKmFr-33">
          <mxGeometry x="1" relative="1" as="geometry">
            <mxPoint x="622" y="470" as="offset" />
          </mxGeometry>
        </mxCell>
        <mxCell id="_XZ0U39rJyCLqSqVKmFr-56" style="edgeStyle=none;curved=1;rounded=0;orthogonalLoop=1;jettySize=auto;html=1;entryX=1;entryY=0;entryDx=0;entryDy=0;fontSize=12;startSize=8;endSize=8;exitX=0;exitY=1;exitDx=0;exitDy=0;" edge="1" parent="1" source="_XZ0U39rJyCLqSqVKmFr-60" target="_XZ0U39rJyCLqSqVKmFr-19">
          <mxGeometry relative="1" as="geometry">
            <Array as="points">
              <mxPoint x="470" y="450" />
            </Array>
          </mxGeometry>
        </mxCell>
        <mxCell id="_XZ0U39rJyCLqSqVKmFr-57" value="Can have" style="edgeLabel;html=1;align=center;verticalAlign=middle;resizable=0;points=[];fontSize=12;" vertex="1" connectable="0" parent="_XZ0U39rJyCLqSqVKmFr-56">
          <mxGeometry x="0.0011" y="-10" relative="1" as="geometry">
            <mxPoint x="-21" y="-20" as="offset" />
          </mxGeometry>
        </mxCell>
        <mxCell id="_XZ0U39rJyCLqSqVKmFr-58" value="Can have" style="edgeLabel;html=1;align=center;verticalAlign=middle;resizable=0;points=[];fontSize=12;" vertex="1" connectable="0" parent="_XZ0U39rJyCLqSqVKmFr-56">
          <mxGeometry x="0.0011" y="-10" relative="1" as="geometry">
            <mxPoint x="449" y="-20" as="offset" />
          </mxGeometry>
        </mxCell>
        <mxCell id="_XZ0U39rJyCLqSqVKmFr-59" value="Can have" style="edgeLabel;html=1;align=center;verticalAlign=middle;resizable=0;points=[];fontSize=12;" vertex="1" connectable="0" parent="_XZ0U39rJyCLqSqVKmFr-56">
          <mxGeometry x="0.0011" y="-10" relative="1" as="geometry">
            <mxPoint x="449" y="220" as="offset" />
          </mxGeometry>
        </mxCell>
        <mxCell id="_XZ0U39rJyCLqSqVKmFr-60" value="Graduate Course" style="swimlane;fontStyle=0;align=center;verticalAlign=top;childLayout=stackLayout;horizontal=1;startSize=26;horizontalStack=0;resizeParent=1;resizeLast=0;collapsible=1;marginBottom=0;rounded=0;shadow=0;strokeWidth=1;" vertex="1" parent="1">
          <mxGeometry x="508" y="240" width="160" height="110" as="geometry">
            <mxRectangle x="550" y="140" width="160" height="26" as="alternateBounds" />
          </mxGeometry>
        </mxCell>
        <mxCell id="_XZ0U39rJyCLqSqVKmFr-61" value="[Attributes]" style="text;align=left;verticalAlign=top;spacingLeft=4;spacingRight=4;overflow=hidden;rotatable=0;points=[[0,0.5],[1,0.5]];portConstraint=eastwest;" vertex="1" parent="_XZ0U39rJyCLqSqVKmFr-60">
          <mxGeometry y="26" width="160" height="26" as="geometry" />
        </mxCell>
        <mxCell id="_XZ0U39rJyCLqSqVKmFr-62" value="" style="line;html=1;strokeWidth=1;align=left;verticalAlign=middle;spacingTop=-1;spacingLeft=3;spacingRight=3;rotatable=0;labelPosition=right;points=[];portConstraint=eastwest;" vertex="1" parent="_XZ0U39rJyCLqSqVKmFr-60">
          <mxGeometry y="52" width="160" height="8" as="geometry" />
        </mxCell>
        <mxCell id="_XZ0U39rJyCLqSqVKmFr-63" style="edgeStyle=none;curved=1;rounded=0;orthogonalLoop=1;jettySize=auto;html=1;fontSize=12;startSize=8;endSize=8;entryX=0.431;entryY=0.02;entryDx=0;entryDy=0;entryPerimeter=0;" edge="1" parent="1" source="_XZ0U39rJyCLqSqVKmFr-60" target="_XZ0U39rJyCLqSqVKmFr-24">
          <mxGeometry relative="1" as="geometry">
            <mxPoint x="589" y="380" as="targetPoint" />
          </mxGeometry>
        </mxCell>
        <mxCell id="_XZ0U39rJyCLqSqVKmFr-64" value="Is taught by" style="edgeLabel;html=1;align=center;verticalAlign=middle;resizable=0;points=[];fontSize=12;" vertex="1" connectable="0" parent="_XZ0U39rJyCLqSqVKmFr-63">
          <mxGeometry x="0.0283" y="2" relative="1" as="geometry">
            <mxPoint x="39" as="offset" />
          </mxGeometry>
        </mxCell>
        <mxCell id="_XZ0U39rJyCLqSqVKmFr-65" value="Can enroll to" style="edgeLabel;html=1;align=center;verticalAlign=middle;resizable=0;points=[];fontSize=12;" vertex="1" connectable="0" parent="_XZ0U39rJyCLqSqVKmFr-63">
          <mxGeometry x="0.0283" y="2" relative="1" as="geometry">
            <mxPoint x="-271" y="-72" as="offset" />
          </mxGeometry>
        </mxCell>
        <mxCell id="_XZ0U39rJyCLqSqVKmFr-66" value="Can create" style="edgeLabel;html=1;align=center;verticalAlign=middle;resizable=0;points=[];fontSize=12;" vertex="1" connectable="0" parent="_XZ0U39rJyCLqSqVKmFr-63">
          <mxGeometry x="0.0283" y="2" relative="1" as="geometry">
            <mxPoint x="39" y="198" as="offset" />
          </mxGeometry>
        </mxCell>
        <mxCell id="_XZ0U39rJyCLqSqVKmFr-67" value="Can access" style="edgeLabel;html=1;align=center;verticalAlign=middle;resizable=0;points=[];fontSize=12;" vertex="1" connectable="0" parent="_XZ0U39rJyCLqSqVKmFr-63">
          <mxGeometry x="0.0283" y="2" relative="1" as="geometry">
            <mxPoint x="-421" y="168" as="offset" />
          </mxGeometry>
        </mxCell>
        <mxCell id="_XZ0U39rJyCLqSqVKmFr-68" value="Can Have" style="edgeLabel;html=1;align=center;verticalAlign=middle;resizable=0;points=[];fontSize=12;" vertex="1" connectable="0" parent="_XZ0U39rJyCLqSqVKmFr-63">
          <mxGeometry x="0.0283" y="2" relative="1" as="geometry">
            <mxPoint x="-331" y="187" as="offset" />
          </mxGeometry>
        </mxCell>
        <mxCell id="_XZ0U39rJyCLqSqVKmFr-69" value="Can create" style="edgeLabel;html=1;align=center;verticalAlign=middle;resizable=0;points=[];fontSize=12;" vertex="1" connectable="0" parent="_XZ0U39rJyCLqSqVKmFr-63">
          <mxGeometry x="0.0283" y="2" relative="1" as="geometry">
            <mxPoint x="109" y="288" as="offset" />
          </mxGeometry>
        </mxCell>
        <mxCell id="_XZ0U39rJyCLqSqVKmFr-70" value="Can enroll to" style="edgeLabel;html=1;align=center;verticalAlign=middle;resizable=0;points=[];fontSize=12;" vertex="1" connectable="0" parent="_XZ0U39rJyCLqSqVKmFr-63">
          <mxGeometry x="0.0283" y="2" relative="1" as="geometry">
            <mxPoint x="219" y="-2" as="offset" />
          </mxGeometry>
        </mxCell>
        <mxCell id="_XZ0U39rJyCLqSqVKmFr-71" value="n,1" style="resizable=0;align=right;verticalAlign=bottom;labelBackgroundColor=none;fontSize=12;" connectable="0" vertex="1" parent="1">
          <mxGeometry x="910" y="470" as="geometry">
            <mxPoint x="-101" y="38" as="offset" />
          </mxGeometry>
        </mxCell>
        <mxCell id="_XZ0U39rJyCLqSqVKmFr-72" value="n,1" style="resizable=0;align=right;verticalAlign=bottom;labelBackgroundColor=none;fontSize=12;" connectable="0" vertex="1" parent="1">
          <mxGeometry x="600" y="252" as="geometry">
            <mxPoint x="-101" y="38" as="offset" />
          </mxGeometry>
        </mxCell>
        <mxCell id="_XZ0U39rJyCLqSqVKmFr-73" value="n,1" style="resizable=0;align=right;verticalAlign=bottom;labelBackgroundColor=none;fontSize=12;" connectable="0" vertex="1" parent="1">
          <mxGeometry x="606.91" y="325" as="geometry">
            <mxPoint x="-101" y="38" as="offset" />
          </mxGeometry>
        </mxCell>
        <mxCell id="_XZ0U39rJyCLqSqVKmFr-74" value="n,1" style="resizable=0;align=right;verticalAlign=bottom;labelBackgroundColor=none;fontSize=12;" connectable="0" vertex="1" parent="1">
          <mxGeometry x="550" y="430" as="geometry">
            <mxPoint x="-101" y="38" as="offset" />
          </mxGeometry>
        </mxCell>
        <mxCell id="_XZ0U39rJyCLqSqVKmFr-75" value="Quiz" style="swimlane;fontStyle=0;align=center;verticalAlign=top;childLayout=stackLayout;horizontal=1;startSize=26;horizontalStack=0;resizeParent=1;resizeLast=0;collapsible=1;marginBottom=0;rounded=0;shadow=0;strokeWidth=1;" vertex="1" parent="1">
          <mxGeometry x="414" y="640" width="160" height="100" as="geometry">
            <mxRectangle x="340" y="380" width="170" height="26" as="alternateBounds" />
          </mxGeometry>
        </mxCell>
        <mxCell id="_XZ0U39rJyCLqSqVKmFr-76" value="[Attributes]" style="text;align=left;verticalAlign=top;spacingLeft=4;spacingRight=4;overflow=hidden;rotatable=0;points=[[0,0.5],[1,0.5]];portConstraint=eastwest;" vertex="1" parent="_XZ0U39rJyCLqSqVKmFr-75">
          <mxGeometry y="26" width="160" height="26" as="geometry" />
        </mxCell>
        <mxCell id="_XZ0U39rJyCLqSqVKmFr-77" value="" style="line;html=1;strokeWidth=1;align=left;verticalAlign=middle;spacingTop=-1;spacingLeft=3;spacingRight=3;rotatable=0;labelPosition=right;points=[];portConstraint=eastwest;" vertex="1" parent="_XZ0U39rJyCLqSqVKmFr-75">
          <mxGeometry y="52" width="160" height="8" as="geometry" />
        </mxCell>
        <mxCell id="_XZ0U39rJyCLqSqVKmFr-78" style="edgeStyle=none;curved=1;rounded=0;orthogonalLoop=1;jettySize=auto;html=1;entryX=0.25;entryY=1;entryDx=0;entryDy=0;fontSize=12;startSize=8;endSize=8;" edge="1" parent="1" source="_XZ0U39rJyCLqSqVKmFr-79" target="_XZ0U39rJyCLqSqVKmFr-19">
          <mxGeometry relative="1" as="geometry">
            <Array as="points">
              <mxPoint x="300" y="600" />
            </Array>
          </mxGeometry>
        </mxCell>
        <mxCell id="_XZ0U39rJyCLqSqVKmFr-79" value="Classroom" style="swimlane;fontStyle=0;align=center;verticalAlign=top;childLayout=stackLayout;horizontal=1;startSize=26;horizontalStack=0;resizeParent=1;resizeLast=0;collapsible=1;marginBottom=0;rounded=0;shadow=0;strokeWidth=1;" vertex="1" parent="1">
          <mxGeometry x="130" y="640" width="160" height="100" as="geometry">
            <mxRectangle x="340" y="380" width="170" height="26" as="alternateBounds" />
          </mxGeometry>
        </mxCell>
        <mxCell id="_XZ0U39rJyCLqSqVKmFr-80" value="[Attributes]" style="text;align=left;verticalAlign=top;spacingLeft=4;spacingRight=4;overflow=hidden;rotatable=0;points=[[0,0.5],[1,0.5]];portConstraint=eastwest;" vertex="1" parent="_XZ0U39rJyCLqSqVKmFr-79">
          <mxGeometry y="26" width="160" height="26" as="geometry" />
        </mxCell>
        <mxCell id="_XZ0U39rJyCLqSqVKmFr-81" value="" style="line;html=1;strokeWidth=1;align=left;verticalAlign=middle;spacingTop=-1;spacingLeft=3;spacingRight=3;rotatable=0;labelPosition=right;points=[];portConstraint=eastwest;" vertex="1" parent="_XZ0U39rJyCLqSqVKmFr-79">
          <mxGeometry y="52" width="160" height="8" as="geometry" />
        </mxCell>
        <mxCell id="_XZ0U39rJyCLqSqVKmFr-82" style="edgeStyle=none;curved=1;rounded=0;orthogonalLoop=1;jettySize=auto;html=1;entryX=0.456;entryY=0;entryDx=0;entryDy=0;entryPerimeter=0;fontSize=12;startSize=8;endSize=8;" edge="1" parent="1" source="_XZ0U39rJyCLqSqVKmFr-19" target="_XZ0U39rJyCLqSqVKmFr-79">
          <mxGeometry relative="1" as="geometry">
            <Array as="points">
              <mxPoint x="190" y="550" />
            </Array>
          </mxGeometry>
        </mxCell>
        <mxCell id="_XZ0U39rJyCLqSqVKmFr-83" style="edgeStyle=none;curved=1;rounded=0;orthogonalLoop=1;jettySize=auto;html=1;entryX=0.007;entryY=0.375;entryDx=0;entryDy=0;fontSize=12;startSize=8;endSize=8;exitX=0;exitY=0.5;exitDx=0;exitDy=0;entryPerimeter=0;" edge="1" parent="1" source="_XZ0U39rJyCLqSqVKmFr-20" target="_XZ0U39rJyCLqSqVKmFr-88">
          <mxGeometry relative="1" as="geometry">
            <mxPoint x="379.91" y="720" as="sourcePoint" />
            <Array as="points">
              <mxPoint x="-10" y="560" />
              <mxPoint x="80" y="880" />
              <mxPoint x="350" y="910" />
            </Array>
          </mxGeometry>
        </mxCell>
        <mxCell id="_XZ0U39rJyCLqSqVKmFr-84" value="Can do" style="edgeLabel;html=1;align=center;verticalAlign=middle;resizable=0;points=[];fontSize=12;" vertex="1" connectable="0" parent="_XZ0U39rJyCLqSqVKmFr-83">
          <mxGeometry x="0.0459" y="5" relative="1" as="geometry">
            <mxPoint x="21" y="-18" as="offset" />
          </mxGeometry>
        </mxCell>
        <mxCell id="_XZ0U39rJyCLqSqVKmFr-85" style="edgeStyle=none;curved=1;rounded=0;orthogonalLoop=1;jettySize=auto;html=1;entryX=1;entryY=0;entryDx=0;entryDy=0;fontSize=12;startSize=8;endSize=8;" edge="1" parent="1" target="_XZ0U39rJyCLqSqVKmFr-86">
          <mxGeometry relative="1" as="geometry">
            <mxPoint x="680" y="540" as="sourcePoint" />
            <Array as="points">
              <mxPoint x="680" y="660" />
              <mxPoint x="630.91" y="770" />
            </Array>
          </mxGeometry>
        </mxCell>
        <mxCell id="_XZ0U39rJyCLqSqVKmFr-86" value="Exam" style="swimlane;fontStyle=0;align=center;verticalAlign=top;childLayout=stackLayout;horizontal=1;startSize=26;horizontalStack=0;resizeParent=1;resizeLast=0;collapsible=1;marginBottom=0;rounded=0;shadow=0;strokeWidth=1;" vertex="1" parent="1">
          <mxGeometry x="444.91" y="810" width="160" height="100" as="geometry">
            <mxRectangle x="340" y="380" width="170" height="26" as="alternateBounds" />
          </mxGeometry>
        </mxCell>
        <mxCell id="_XZ0U39rJyCLqSqVKmFr-87" value="[Attributes]" style="text;align=left;verticalAlign=top;spacingLeft=4;spacingRight=4;overflow=hidden;rotatable=0;points=[[0,0.5],[1,0.5]];portConstraint=eastwest;" vertex="1" parent="_XZ0U39rJyCLqSqVKmFr-86">
          <mxGeometry y="26" width="160" height="26" as="geometry" />
        </mxCell>
        <mxCell id="_XZ0U39rJyCLqSqVKmFr-88" value="" style="line;html=1;strokeWidth=1;align=left;verticalAlign=middle;spacingTop=-1;spacingLeft=3;spacingRight=3;rotatable=0;labelPosition=right;points=[];portConstraint=eastwest;" vertex="1" parent="_XZ0U39rJyCLqSqVKmFr-86">
          <mxGeometry y="52" width="160" height="8" as="geometry" />
        </mxCell>
        <mxCell id="_XZ0U39rJyCLqSqVKmFr-89" value="Department Head" style="swimlane;fontStyle=0;align=center;verticalAlign=top;childLayout=stackLayout;horizontal=1;startSize=26;horizontalStack=0;resizeParent=1;resizeLast=0;collapsible=1;marginBottom=0;rounded=0;shadow=0;strokeWidth=1;" vertex="1" parent="1">
          <mxGeometry x="810" y="60" width="160" height="100" as="geometry">
            <mxRectangle x="550" y="140" width="160" height="26" as="alternateBounds" />
          </mxGeometry>
        </mxCell>
        <mxCell id="_XZ0U39rJyCLqSqVKmFr-90" value="[Attributes]" style="text;align=left;verticalAlign=top;spacingLeft=4;spacingRight=4;overflow=hidden;rotatable=0;points=[[0,0.5],[1,0.5]];portConstraint=eastwest;" vertex="1" parent="_XZ0U39rJyCLqSqVKmFr-89">
          <mxGeometry y="26" width="160" height="26" as="geometry" />
        </mxCell>
        <mxCell id="_XZ0U39rJyCLqSqVKmFr-91" value="" style="line;html=1;strokeWidth=1;align=left;verticalAlign=middle;spacingTop=-1;spacingLeft=3;spacingRight=3;rotatable=0;labelPosition=right;points=[];portConstraint=eastwest;" vertex="1" parent="_XZ0U39rJyCLqSqVKmFr-89">
          <mxGeometry y="52" width="160" height="8" as="geometry" />
        </mxCell>
        <mxCell id="_XZ0U39rJyCLqSqVKmFr-92" style="edgeStyle=none;curved=1;rounded=0;orthogonalLoop=1;jettySize=auto;html=1;entryX=0;entryY=0.5;entryDx=0;entryDy=0;fontSize=12;startSize=8;endSize=8;" edge="1" parent="1" source="_XZ0U39rJyCLqSqVKmFr-31" target="_XZ0U39rJyCLqSqVKmFr-90">
          <mxGeometry relative="1" as="geometry" />
        </mxCell>
        <mxCell id="_XZ0U39rJyCLqSqVKmFr-93" value="Has a" style="edgeLabel;html=1;align=center;verticalAlign=middle;resizable=0;points=[];fontSize=12;" vertex="1" connectable="0" parent="_XZ0U39rJyCLqSqVKmFr-92">
          <mxGeometry x="-0.0262" y="-1" relative="1" as="geometry">
            <mxPoint x="1" y="-11" as="offset" />
          </mxGeometry>
        </mxCell>
        <mxCell id="_XZ0U39rJyCLqSqVKmFr-94" value="1" style="edgeLabel;html=1;align=center;verticalAlign=middle;resizable=0;points=[];fontSize=12;" vertex="1" connectable="0" parent="_XZ0U39rJyCLqSqVKmFr-92">
          <mxGeometry x="-0.6499" y="-2" relative="1" as="geometry">
            <mxPoint x="-17" y="-11" as="offset" />
          </mxGeometry>
        </mxCell>
        <mxCell id="_XZ0U39rJyCLqSqVKmFr-95" value="1" style="edgeLabel;html=1;align=center;verticalAlign=middle;resizable=0;points=[];fontSize=12;" vertex="1" connectable="0" parent="_XZ0U39rJyCLqSqVKmFr-92">
          <mxGeometry x="-0.6499" y="-2" relative="1" as="geometry">
            <mxPoint x="100" y="-9" as="offset" />
          </mxGeometry>
        </mxCell>
        <mxCell id="_XZ0U39rJyCLqSqVKmFr-96" value="1" style="edgeLabel;html=1;align=center;verticalAlign=middle;resizable=0;points=[];fontSize=12;" vertex="1" connectable="0" parent="_XZ0U39rJyCLqSqVKmFr-92">
          <mxGeometry x="-0.6499" y="-2" relative="1" as="geometry">
            <mxPoint x="-19" y="40" as="offset" />
          </mxGeometry>
        </mxCell>
        <mxCell id="_XZ0U39rJyCLqSqVKmFr-97" value="n" style="edgeLabel;html=1;align=center;verticalAlign=middle;resizable=0;points=[];fontSize=12;" vertex="1" connectable="0" parent="_XZ0U39rJyCLqSqVKmFr-92">
          <mxGeometry x="-0.6499" y="-2" relative="1" as="geometry">
            <mxPoint x="109" y="121" as="offset" />
          </mxGeometry>
        </mxCell>
        <mxCell id="_XZ0U39rJyCLqSqVKmFr-98" value="1" style="edgeLabel;html=1;align=center;verticalAlign=middle;resizable=0;points=[];fontSize=12;" vertex="1" connectable="0" parent="_XZ0U39rJyCLqSqVKmFr-92">
          <mxGeometry x="-0.6499" y="-2" relative="1" as="geometry">
            <mxPoint x="400" y="-51" as="offset" />
          </mxGeometry>
        </mxCell>
        <mxCell id="_XZ0U39rJyCLqSqVKmFr-99" value="1" style="edgeLabel;html=1;align=center;verticalAlign=middle;resizable=0;points=[];fontSize=12;" vertex="1" connectable="0" parent="_XZ0U39rJyCLqSqVKmFr-92">
          <mxGeometry x="-0.6499" y="-2" relative="1" as="geometry">
            <mxPoint x="295" y="-159" as="offset" />
          </mxGeometry>
        </mxCell>
        <mxCell id="_XZ0U39rJyCLqSqVKmFr-100" style="edgeStyle=none;curved=1;rounded=0;orthogonalLoop=1;jettySize=auto;html=1;entryX=0.5;entryY=0;entryDx=0;entryDy=0;fontSize=12;startSize=8;endSize=8;" edge="1" parent="1" source="_XZ0U39rJyCLqSqVKmFr-101" target="_XZ0U39rJyCLqSqVKmFr-106">
          <mxGeometry relative="1" as="geometry" />
        </mxCell>
        <mxCell id="_XZ0U39rJyCLqSqVKmFr-101" value="Undergraduate Course" style="swimlane;fontStyle=0;align=center;verticalAlign=top;childLayout=stackLayout;horizontal=1;startSize=26;horizontalStack=0;resizeParent=1;resizeLast=0;collapsible=1;marginBottom=0;rounded=0;shadow=0;strokeWidth=1;" vertex="1" parent="1">
          <mxGeometry x="810" y="240" width="160" height="110" as="geometry">
            <mxRectangle x="550" y="140" width="160" height="26" as="alternateBounds" />
          </mxGeometry>
        </mxCell>
        <mxCell id="_XZ0U39rJyCLqSqVKmFr-102" value="[Attributes]" style="text;align=left;verticalAlign=top;spacingLeft=4;spacingRight=4;overflow=hidden;rotatable=0;points=[[0,0.5],[1,0.5]];portConstraint=eastwest;" vertex="1" parent="_XZ0U39rJyCLqSqVKmFr-101">
          <mxGeometry y="26" width="160" height="26" as="geometry" />
        </mxCell>
        <mxCell id="_XZ0U39rJyCLqSqVKmFr-103" value="" style="line;html=1;strokeWidth=1;align=left;verticalAlign=middle;spacingTop=-1;spacingLeft=3;spacingRight=3;rotatable=0;labelPosition=right;points=[];portConstraint=eastwest;" vertex="1" parent="_XZ0U39rJyCLqSqVKmFr-101">
          <mxGeometry y="52" width="160" height="8" as="geometry" />
        </mxCell>
        <mxCell id="_XZ0U39rJyCLqSqVKmFr-104" style="edgeStyle=none;curved=1;rounded=0;orthogonalLoop=1;jettySize=auto;html=1;fontSize=12;startSize=8;endSize=8;exitX=0;exitY=0.5;exitDx=0;exitDy=0;" edge="1" parent="1" source="_XZ0U39rJyCLqSqVKmFr-107">
          <mxGeometry relative="1" as="geometry">
            <mxPoint x="780" y="486.5" as="sourcePoint" />
            <mxPoint x="810" y="310" as="targetPoint" />
            <Array as="points">
              <mxPoint x="740" y="410" />
            </Array>
          </mxGeometry>
        </mxCell>
        <mxCell id="_XZ0U39rJyCLqSqVKmFr-105" style="edgeStyle=none;curved=1;rounded=0;orthogonalLoop=1;jettySize=auto;html=1;entryX=0.5;entryY=0;entryDx=0;entryDy=0;fontSize=12;startSize=8;endSize=8;" edge="1" parent="1" source="_XZ0U39rJyCLqSqVKmFr-106" target="_XZ0U39rJyCLqSqVKmFr-112">
          <mxGeometry relative="1" as="geometry" />
        </mxCell>
        <mxCell id="_XZ0U39rJyCLqSqVKmFr-106" value="Undegraduate Student" style="swimlane;fontStyle=0;align=center;verticalAlign=top;childLayout=stackLayout;horizontal=1;startSize=26;horizontalStack=0;resizeParent=1;resizeLast=0;collapsible=1;marginBottom=0;rounded=0;shadow=0;strokeWidth=1;" vertex="1" parent="1">
          <mxGeometry x="810" y="450" width="160" height="100" as="geometry">
            <mxRectangle x="130" y="380" width="160" height="26" as="alternateBounds" />
          </mxGeometry>
        </mxCell>
        <mxCell id="_XZ0U39rJyCLqSqVKmFr-107" value="[Attributes]" style="text;align=left;verticalAlign=top;spacingLeft=4;spacingRight=4;overflow=hidden;rotatable=0;points=[[0,0.5],[1,0.5]];portConstraint=eastwest;" vertex="1" parent="_XZ0U39rJyCLqSqVKmFr-106">
          <mxGeometry y="26" width="160" height="26" as="geometry" />
        </mxCell>
        <mxCell id="_XZ0U39rJyCLqSqVKmFr-108" value="" style="line;html=1;strokeWidth=1;align=left;verticalAlign=middle;spacingTop=-1;spacingLeft=3;spacingRight=3;rotatable=0;labelPosition=right;points=[];portConstraint=eastwest;" vertex="1" parent="_XZ0U39rJyCLqSqVKmFr-106">
          <mxGeometry y="52" width="160" height="8" as="geometry" />
        </mxCell>
        <mxCell id="_XZ0U39rJyCLqSqVKmFr-109" value="n,1" style="resizable=0;align=right;verticalAlign=bottom;labelBackgroundColor=none;fontSize=12;" connectable="0" vertex="1" parent="1">
          <mxGeometry x="1012" y="329" as="geometry">
            <mxPoint x="-101" y="38" as="offset" />
          </mxGeometry>
        </mxCell>
        <mxCell id="_XZ0U39rJyCLqSqVKmFr-110" value="n,1" style="resizable=0;align=right;verticalAlign=bottom;labelBackgroundColor=none;fontSize=12;" connectable="0" vertex="1" parent="1">
          <mxGeometry x="1016" y="410" as="geometry">
            <mxPoint x="-101" y="38" as="offset" />
          </mxGeometry>
        </mxCell>
        <mxCell id="_XZ0U39rJyCLqSqVKmFr-111" value="n,1" style="resizable=0;align=right;verticalAlign=bottom;labelBackgroundColor=none;fontSize=12;" connectable="0" vertex="1" parent="1">
          <mxGeometry x="900" y="280" as="geometry">
            <mxPoint x="-101" y="38" as="offset" />
          </mxGeometry>
        </mxCell>
        <mxCell id="_XZ0U39rJyCLqSqVKmFr-112" value="Degree" style="swimlane;fontStyle=0;align=center;verticalAlign=top;childLayout=stackLayout;horizontal=1;startSize=26;horizontalStack=0;resizeParent=1;resizeLast=0;collapsible=1;marginBottom=0;rounded=0;shadow=0;strokeWidth=1;" vertex="1" parent="1">
          <mxGeometry x="810" y="730" width="160" height="100" as="geometry">
            <mxRectangle x="130" y="380" width="160" height="26" as="alternateBounds" />
          </mxGeometry>
        </mxCell>
        <mxCell id="_XZ0U39rJyCLqSqVKmFr-113" value="[Attributes]" style="text;align=left;verticalAlign=top;spacingLeft=4;spacingRight=4;overflow=hidden;rotatable=0;points=[[0,0.5],[1,0.5]];portConstraint=eastwest;" vertex="1" parent="_XZ0U39rJyCLqSqVKmFr-112">
          <mxGeometry y="26" width="160" height="26" as="geometry" />
        </mxCell>
        <mxCell id="_XZ0U39rJyCLqSqVKmFr-114" value="" style="line;html=1;strokeWidth=1;align=left;verticalAlign=middle;spacingTop=-1;spacingLeft=3;spacingRight=3;rotatable=0;labelPosition=right;points=[];portConstraint=eastwest;" vertex="1" parent="_XZ0U39rJyCLqSqVKmFr-112">
          <mxGeometry y="52" width="160" height="8" as="geometry" />
        </mxCell>
        <mxCell id="_XZ0U39rJyCLqSqVKmFr-115" value="n" style="resizable=0;align=right;verticalAlign=bottom;labelBackgroundColor=none;fontSize=12;" connectable="0" vertex="1" parent="1">
          <mxGeometry x="1007" y="533" as="geometry">
            <mxPoint x="-101" y="38" as="offset" />
          </mxGeometry>
        </mxCell>
        <mxCell id="_XZ0U39rJyCLqSqVKmFr-116" value="1" style="resizable=0;align=right;verticalAlign=bottom;labelBackgroundColor=none;fontSize=12;" connectable="0" vertex="1" parent="1">
          <mxGeometry x="1004" y="680" as="geometry">
            <mxPoint x="-101" y="38" as="offset" />
          </mxGeometry>
        </mxCell>
        <mxCell id="_XZ0U39rJyCLqSqVKmFr-117" value="Building" style="swimlane;fontStyle=2;align=center;verticalAlign=top;childLayout=stackLayout;horizontal=1;startSize=26;horizontalStack=0;resizeParent=1;resizeLast=0;collapsible=1;marginBottom=0;rounded=0;shadow=0;strokeWidth=1;" vertex="1" parent="1">
          <mxGeometry x="-170" y="60" width="160" height="100" as="geometry">
            <mxRectangle x="230" y="140" width="160" height="26" as="alternateBounds" />
          </mxGeometry>
        </mxCell>
        <mxCell id="_XZ0U39rJyCLqSqVKmFr-118" value="[Attributes]" style="text;align=left;verticalAlign=top;spacingLeft=4;spacingRight=4;overflow=hidden;rotatable=0;points=[[0,0.5],[1,0.5]];portConstraint=eastwest;" vertex="1" parent="_XZ0U39rJyCLqSqVKmFr-117">
          <mxGeometry y="26" width="160" height="26" as="geometry" />
        </mxCell>
        <mxCell id="_XZ0U39rJyCLqSqVKmFr-119" value="" style="line;html=1;strokeWidth=1;align=left;verticalAlign=middle;spacingTop=-1;spacingLeft=3;spacingRight=3;rotatable=0;labelPosition=right;points=[];portConstraint=eastwest;" vertex="1" parent="_XZ0U39rJyCLqSqVKmFr-117">
          <mxGeometry y="52" width="160" height="8" as="geometry" />
        </mxCell>
        <mxCell id="_XZ0U39rJyCLqSqVKmFr-120" style="edgeStyle=none;curved=1;rounded=0;orthogonalLoop=1;jettySize=auto;html=1;entryX=1;entryY=0.5;entryDx=0;entryDy=0;fontSize=12;startSize=8;endSize=8;" edge="1" parent="1" source="_XZ0U39rJyCLqSqVKmFr-14" target="_XZ0U39rJyCLqSqVKmFr-118">
          <mxGeometry relative="1" as="geometry" />
        </mxCell>
        <mxCell id="_XZ0U39rJyCLqSqVKmFr-121" value="n,0" style="edgeLabel;html=1;align=center;verticalAlign=middle;resizable=0;points=[];fontSize=12;" vertex="1" connectable="0" parent="_XZ0U39rJyCLqSqVKmFr-120">
          <mxGeometry x="-0.5801" y="-4" relative="1" as="geometry">
            <mxPoint x="33" y="-5" as="offset" />
          </mxGeometry>
        </mxCell>
        <mxCell id="_XZ0U39rJyCLqSqVKmFr-122" value="n,0" style="edgeLabel;html=1;align=center;verticalAlign=middle;resizable=0;points=[];fontSize=12;" vertex="1" connectable="0" parent="_XZ0U39rJyCLqSqVKmFr-120">
          <mxGeometry x="-0.5801" y="-4" relative="1" as="geometry">
            <mxPoint x="-164" y="-6" as="offset" />
          </mxGeometry>
        </mxCell>
        <mxCell id="_XZ0U39rJyCLqSqVKmFr-123" value="can be a" style="edgeLabel;html=1;align=center;verticalAlign=middle;resizable=0;points=[];fontSize=12;" vertex="1" connectable="0" parent="_XZ0U39rJyCLqSqVKmFr-120">
          <mxGeometry x="0.0161" y="2" relative="1" as="geometry">
            <mxPoint y="-13" as="offset" />
          </mxGeometry>
        </mxCell>
        <mxCell id="_XZ0U39rJyCLqSqVKmFr-124" value="Teaching assistant" style="swimlane;fontStyle=0;align=center;verticalAlign=top;childLayout=stackLayout;horizontal=1;startSize=26;horizontalStack=0;resizeParent=1;resizeLast=0;collapsible=1;marginBottom=0;rounded=0;shadow=0;strokeWidth=1;" vertex="1" parent="1">
          <mxGeometry x="1070" y="450" width="160" height="100" as="geometry">
            <mxRectangle x="340" y="380" width="170" height="26" as="alternateBounds" />
          </mxGeometry>
        </mxCell>
        <mxCell id="_XZ0U39rJyCLqSqVKmFr-125" value="[Attributes]" style="text;align=left;verticalAlign=top;spacingLeft=4;spacingRight=4;overflow=hidden;rotatable=0;points=[[0,0.5],[1,0.5]];portConstraint=eastwest;" vertex="1" parent="_XZ0U39rJyCLqSqVKmFr-124">
          <mxGeometry y="26" width="160" height="26" as="geometry" />
        </mxCell>
        <mxCell id="_XZ0U39rJyCLqSqVKmFr-126" value="" style="line;html=1;strokeWidth=1;align=left;verticalAlign=middle;spacingTop=-1;spacingLeft=3;spacingRight=3;rotatable=0;labelPosition=right;points=[];portConstraint=eastwest;" vertex="1" parent="_XZ0U39rJyCLqSqVKmFr-124">
          <mxGeometry y="52" width="160" height="8" as="geometry" />
        </mxCell>
        <mxCell id="_XZ0U39rJyCLqSqVKmFr-127" value="Dean" style="swimlane;fontStyle=0;align=center;verticalAlign=top;childLayout=stackLayout;horizontal=1;startSize=26;horizontalStack=0;resizeParent=1;resizeLast=0;collapsible=1;marginBottom=0;rounded=0;shadow=0;strokeWidth=1;" vertex="1" parent="1">
          <mxGeometry x="1040" y="60" width="160" height="100" as="geometry">
            <mxRectangle x="550" y="140" width="160" height="26" as="alternateBounds" />
          </mxGeometry>
        </mxCell>
        <mxCell id="_XZ0U39rJyCLqSqVKmFr-128" value="[Attributes]" style="text;align=left;verticalAlign=top;spacingLeft=4;spacingRight=4;overflow=hidden;rotatable=0;points=[[0,0.5],[1,0.5]];portConstraint=eastwest;" vertex="1" parent="_XZ0U39rJyCLqSqVKmFr-127">
          <mxGeometry y="26" width="160" height="26" as="geometry" />
        </mxCell>
        <mxCell id="_XZ0U39rJyCLqSqVKmFr-129" value="" style="line;html=1;strokeWidth=1;align=left;verticalAlign=middle;spacingTop=-1;spacingLeft=3;spacingRight=3;rotatable=0;labelPosition=right;points=[];portConstraint=eastwest;" vertex="1" parent="_XZ0U39rJyCLqSqVKmFr-127">
          <mxGeometry y="52" width="160" height="8" as="geometry" />
        </mxCell>
        <mxCell id="_XZ0U39rJyCLqSqVKmFr-130" style="edgeStyle=none;curved=1;rounded=0;orthogonalLoop=1;jettySize=auto;html=1;entryX=0.75;entryY=0;entryDx=0;entryDy=0;fontSize=12;startSize=8;endSize=8;" edge="1" parent="1" source="_XZ0U39rJyCLqSqVKmFr-136" target="_XZ0U39rJyCLqSqVKmFr-30">
          <mxGeometry relative="1" as="geometry">
            <Array as="points">
              <mxPoint x="680" y="-40" />
            </Array>
          </mxGeometry>
        </mxCell>
        <mxCell id="_XZ0U39rJyCLqSqVKmFr-131" value="has" style="edgeLabel;html=1;align=center;verticalAlign=middle;resizable=0;points=[];fontSize=12;" vertex="1" connectable="0" parent="_XZ0U39rJyCLqSqVKmFr-130">
          <mxGeometry x="-0.1705" y="18" relative="1" as="geometry">
            <mxPoint x="-10" y="-7" as="offset" />
          </mxGeometry>
        </mxCell>
        <mxCell id="_XZ0U39rJyCLqSqVKmFr-132" value="1" style="edgeLabel;html=1;align=center;verticalAlign=middle;resizable=0;points=[];fontSize=12;" vertex="1" connectable="0" parent="_XZ0U39rJyCLqSqVKmFr-130">
          <mxGeometry x="-0.1705" y="18" relative="1" as="geometry">
            <mxPoint x="90" y="-33" as="offset" />
          </mxGeometry>
        </mxCell>
        <mxCell id="_XZ0U39rJyCLqSqVKmFr-133" value="n" style="edgeLabel;html=1;align=center;verticalAlign=middle;resizable=0;points=[];fontSize=12;" vertex="1" connectable="0" parent="_XZ0U39rJyCLqSqVKmFr-130">
          <mxGeometry x="-0.1705" y="18" relative="1" as="geometry">
            <mxPoint x="-84" y="65" as="offset" />
          </mxGeometry>
        </mxCell>
        <mxCell id="_XZ0U39rJyCLqSqVKmFr-134" value="1" style="edgeLabel;html=1;align=center;verticalAlign=middle;resizable=0;points=[];fontSize=12;" vertex="1" connectable="0" parent="_XZ0U39rJyCLqSqVKmFr-130">
          <mxGeometry x="-0.1705" y="18" relative="1" as="geometry">
            <mxPoint x="117" y="-87" as="offset" />
          </mxGeometry>
        </mxCell>
        <mxCell id="_XZ0U39rJyCLqSqVKmFr-135" value="1" style="edgeLabel;html=1;align=center;verticalAlign=middle;resizable=0;points=[];fontSize=12;" vertex="1" connectable="0" parent="_XZ0U39rJyCLqSqVKmFr-130">
          <mxGeometry x="-0.1705" y="18" relative="1" as="geometry">
            <mxPoint x="-296" y="-197" as="offset" />
          </mxGeometry>
        </mxCell>
        <mxCell id="_XZ0U39rJyCLqSqVKmFr-136" value="Faculty" style="swimlane;fontStyle=0;align=center;verticalAlign=top;childLayout=stackLayout;horizontal=1;startSize=26;horizontalStack=0;resizeParent=1;resizeLast=0;collapsible=1;marginBottom=0;rounded=0;shadow=0;strokeWidth=1;" vertex="1" parent="1">
          <mxGeometry x="810" y="-100" width="160" height="100" as="geometry">
            <mxRectangle x="550" y="140" width="160" height="26" as="alternateBounds" />
          </mxGeometry>
        </mxCell>
        <mxCell id="_XZ0U39rJyCLqSqVKmFr-137" value="[Attributes]" style="text;align=left;verticalAlign=top;spacingLeft=4;spacingRight=4;overflow=hidden;rotatable=0;points=[[0,0.5],[1,0.5]];portConstraint=eastwest;" vertex="1" parent="_XZ0U39rJyCLqSqVKmFr-136">
          <mxGeometry y="26" width="160" height="26" as="geometry" />
        </mxCell>
        <mxCell id="_XZ0U39rJyCLqSqVKmFr-138" value="" style="line;html=1;strokeWidth=1;align=left;verticalAlign=middle;spacingTop=-1;spacingLeft=3;spacingRight=3;rotatable=0;labelPosition=right;points=[];portConstraint=eastwest;" vertex="1" parent="_XZ0U39rJyCLqSqVKmFr-136">
          <mxGeometry y="52" width="160" height="8" as="geometry" />
        </mxCell>
        <mxCell id="_XZ0U39rJyCLqSqVKmFr-139" style="edgeStyle=none;curved=1;rounded=0;orthogonalLoop=1;jettySize=auto;html=1;entryX=1.007;entryY=0.804;entryDx=0;entryDy=0;entryPerimeter=0;fontSize=12;startSize=8;endSize=8;" edge="1" parent="1" source="_XZ0U39rJyCLqSqVKmFr-127" target="_XZ0U39rJyCLqSqVKmFr-137">
          <mxGeometry relative="1" as="geometry">
            <Array as="points">
              <mxPoint x="1040" y="-30" />
            </Array>
          </mxGeometry>
        </mxCell>
        <mxCell id="_XZ0U39rJyCLqSqVKmFr-140" value="leads" style="edgeLabel;html=1;align=center;verticalAlign=middle;resizable=0;points=[];fontSize=12;" vertex="1" connectable="0" parent="_XZ0U39rJyCLqSqVKmFr-139">
          <mxGeometry x="-0.1367" y="5" relative="1" as="geometry">
            <mxPoint x="21" as="offset" />
          </mxGeometry>
        </mxCell>
        <mxCell id="_XZ0U39rJyCLqSqVKmFr-141" value="Committee" style="swimlane;fontStyle=2;align=center;verticalAlign=top;childLayout=stackLayout;horizontal=1;startSize=26;horizontalStack=0;resizeParent=1;resizeLast=0;collapsible=1;marginBottom=0;rounded=0;shadow=0;strokeWidth=1;" vertex="1" parent="1">
          <mxGeometry x="240" y="-230" width="160" height="100" as="geometry">
            <mxRectangle x="230" y="140" width="160" height="26" as="alternateBounds" />
          </mxGeometry>
        </mxCell>
        <mxCell id="_XZ0U39rJyCLqSqVKmFr-142" value="[Attributes]" style="text;align=left;verticalAlign=top;spacingLeft=4;spacingRight=4;overflow=hidden;rotatable=0;points=[[0,0.5],[1,0.5]];portConstraint=eastwest;" vertex="1" parent="_XZ0U39rJyCLqSqVKmFr-141">
          <mxGeometry y="26" width="160" height="26" as="geometry" />
        </mxCell>
        <mxCell id="_XZ0U39rJyCLqSqVKmFr-143" value="" style="line;html=1;strokeWidth=1;align=left;verticalAlign=middle;spacingTop=-1;spacingLeft=3;spacingRight=3;rotatable=0;labelPosition=right;points=[];portConstraint=eastwest;" vertex="1" parent="_XZ0U39rJyCLqSqVKmFr-141">
          <mxGeometry y="52" width="160" height="8" as="geometry" />
        </mxCell>
        <mxCell id="_XZ0U39rJyCLqSqVKmFr-144" style="edgeStyle=none;curved=1;rounded=0;orthogonalLoop=1;jettySize=auto;html=1;entryX=0.993;entryY=0.16;entryDx=0;entryDy=0;entryPerimeter=0;fontSize=12;startSize=8;endSize=8;" edge="1" parent="1" source="_XZ0U39rJyCLqSqVKmFr-136" target="_XZ0U39rJyCLqSqVKmFr-141">
          <mxGeometry relative="1" as="geometry">
            <Array as="points">
              <mxPoint x="680" y="-230" />
            </Array>
          </mxGeometry>
        </mxCell>
        <mxCell id="_XZ0U39rJyCLqSqVKmFr-145" value="School Catalog" style="swimlane;fontStyle=2;align=center;verticalAlign=top;childLayout=stackLayout;horizontal=1;startSize=26;horizontalStack=0;resizeParent=1;resizeLast=0;collapsible=1;marginBottom=0;rounded=0;shadow=0;strokeWidth=1;" vertex="1" parent="1">
          <mxGeometry y="240" width="160" height="100" as="geometry">
            <mxRectangle x="230" y="140" width="160" height="26" as="alternateBounds" />
          </mxGeometry>
        </mxCell>
        <mxCell id="_XZ0U39rJyCLqSqVKmFr-146" value="[Attributes]" style="text;align=left;verticalAlign=top;spacingLeft=4;spacingRight=4;overflow=hidden;rotatable=0;points=[[0,0.5],[1,0.5]];portConstraint=eastwest;" vertex="1" parent="_XZ0U39rJyCLqSqVKmFr-145">
          <mxGeometry y="26" width="160" height="26" as="geometry" />
        </mxCell>
        <mxCell id="_XZ0U39rJyCLqSqVKmFr-147" value="" style="line;html=1;strokeWidth=1;align=left;verticalAlign=middle;spacingTop=-1;spacingLeft=3;spacingRight=3;rotatable=0;labelPosition=right;points=[];portConstraint=eastwest;" vertex="1" parent="_XZ0U39rJyCLqSqVKmFr-145">
          <mxGeometry y="52" width="160" height="8" as="geometry" />
        </mxCell>
      </root>
    </mxGraphModel>
  </diagram>
</mxfile>
